<svg width="67" height="16" viewBox="0 0 67 16" fill="none" xmlns="http://www.w3.org/2000/svg">
<path d="M5.65039 6.92383C4.5306 6.92383 3.77865 7.28841 3.39453 8.01758C3.17969 8.42773 3.07227 9.05924 3.07227 9.91211V15H0.269531V4.35547H2.92578V6.21094C3.35547 5.5013 3.72982 5.01628 4.04883 4.75586C4.56966 4.31966 5.24674 4.10156 6.08008 4.10156C6.13216 4.10156 6.17448 4.10482 6.20703 4.11133C6.24609 4.11133 6.32747 4.11458 6.45117 4.12109V6.97266C6.27539 6.95312 6.11914 6.9401 5.98242 6.93359C5.8457 6.92708 5.73503 6.92383 5.65039 6.92383Z" fill="#FDFDFD"/>
<path d="M17.2031 11.875C17.1315 12.5065 16.8027 13.1478 16.2168 13.7988C15.3053 14.834 14.0293 15.3516 12.3887 15.3516C11.0345 15.3516 9.83984 14.9154 8.80469 14.043C7.76953 13.1706 7.25195 11.7513 7.25195 9.78516C7.25195 7.94271 7.71745 6.52995 8.64844 5.54688C9.58594 4.5638 10.8001 4.07227 12.291 4.07227C13.1764 4.07227 13.974 4.23828 14.6836 4.57031C15.3932 4.90234 15.9792 5.42643 16.4414 6.14258C16.8581 6.77409 17.1283 7.50651 17.252 8.33984C17.3236 8.82812 17.3529 9.53125 17.3398 10.4492H10.0547C10.0938 11.5169 10.429 12.2656 11.0605 12.6953C11.4447 12.9622 11.9069 13.0957 12.4473 13.0957C13.0202 13.0957 13.4857 12.9329 13.8438 12.6074C14.0391 12.4316 14.2116 12.1875 14.3613 11.875H17.2031ZM14.4492 8.61328C14.4036 7.8776 14.179 7.32096 13.7754 6.94336C13.3783 6.55924 12.8835 6.36719 12.291 6.36719C11.6465 6.36719 11.1452 6.56901 10.7871 6.97266C10.4355 7.3763 10.2142 7.92318 10.123 8.61328H14.4492Z" fill="#FDFDFD"/>
<path d="M29.6543 3.1543H22.4375V6.46484H28.7559V8.96484H22.4375V15H19.4492V0.625H29.6543V3.1543Z" fill="#FDFDFD"/>
<path d="M38.2773 13.4961C38.2513 13.5286 38.1862 13.6263 38.082 13.7891C37.9779 13.9518 37.8542 14.0951 37.7109 14.2188C37.2747 14.6094 36.8516 14.8763 36.4414 15.0195C36.0378 15.1628 35.5625 15.2344 35.0156 15.2344C33.4401 15.2344 32.3789 14.668 31.832 13.5352C31.526 12.9102 31.373 11.9889 31.373 10.7715V4.35547H34.2246V10.7715C34.2246 11.377 34.2962 11.8327 34.4395 12.1387C34.6934 12.679 35.1914 12.9492 35.9336 12.9492C36.8841 12.9492 37.5352 12.5651 37.8867 11.7969C38.069 11.3802 38.1602 10.8301 38.1602 10.1465V4.35547H40.9824V15H38.2773V13.4961Z" fill="#FDFDFD"/>
<path d="M49.0293 6.92383C47.9095 6.92383 47.1576 7.28841 46.7734 8.01758C46.5586 8.42773 46.4512 9.05924 46.4512 9.91211V15H43.6484V4.35547H46.3047V6.21094C46.7344 5.5013 47.1087 5.01628 47.4277 4.75586C47.9486 4.31966 48.6257 4.10156 49.459 4.10156C49.5111 4.10156 49.5534 4.10482 49.5859 4.11133C49.625 4.11133 49.7064 4.11458 49.8301 4.12109V6.97266C49.6543 6.95312 49.498 6.9401 49.3613 6.93359C49.2246 6.92708 49.1139 6.92383 49.0293 6.92383Z" fill="#FDFDFD"/>
<path d="M57.252 15.2832C56.373 15.2832 55.6667 15.1074 55.1328 14.7559C54.8138 14.5475 54.4688 14.1829 54.0977 13.6621V15H51.373V0.625H54.1465V5.74219C54.498 5.2474 54.8854 4.86979 55.3086 4.60938C55.8099 4.28385 56.4479 4.12109 57.2227 4.12109C58.6224 4.12109 59.7161 4.62565 60.5039 5.63477C61.2982 6.64388 61.6953 7.94596 61.6953 9.54102C61.6953 11.1947 61.3047 12.5651 60.5234 13.6523C59.7422 14.7396 58.6517 15.2832 57.252 15.2832ZM58.7754 9.83398C58.7754 9.07878 58.6777 8.45378 58.4824 7.95898C58.1113 7.02148 57.4277 6.55273 56.4316 6.55273C55.4225 6.55273 54.7292 7.01172 54.3516 7.92969C54.1562 8.41797 54.0586 9.04948 54.0586 9.82422C54.0586 10.7357 54.2604 11.4909 54.6641 12.0898C55.0677 12.6888 55.6829 12.9883 56.5098 12.9883C57.2259 12.9883 57.7826 12.6986 58.1797 12.1191C58.5768 11.5397 58.7754 10.778 58.7754 9.83398Z" fill="#FDFDFD"/>
<path d="M63.6484 12.0898H66.6074V15H63.6484V12.0898Z" fill="#FDFDFD"/>
</svg>
